<svg xmlns="http://www.w3.org/2000/svg" xmlns:xlink="http://www.w3.org/1999/xlink" id="Layer_1" x="0" y="0" version="1.1" viewBox="0 0 119.9 144" xml:space="preserve" style="enable-background:new 0 0 119.9 144"><style type="text/css">.st0{fill:url(#SVGID_1_)}.st1{fill:url(#SVGID_2_)}.st2{opacity:.43;fill:url(#SVGID_3_)}.st3{fill:url(#SVGID_4_)}.st4{fill:url(#SVGID_5_)}.st5{fill:url(#SVGID_6_)}.st6{fill:url(#SVGID_7_)}.st7{fill:url(#SVGID_8_)}.st8{fill:url(#SVGID_9_)}.st9{fill:url(#SVGID_10_)}.st10{opacity:.17;fill:url(#SVGID_11_)}.st11{opacity:.25;fill:url(#SVGID_12_)}</style><linearGradient id="SVGID_1_" x1="-52.291" x2="23.383" y1="-474.658" y2="-474.658" gradientTransform="matrix(0.3653 -0.9308 0.9308 0.3653 494.3181 263.6963)" gradientUnits="userSpaceOnUse"><stop offset="0" style="stop-color:#2a255c"/><stop offset=".5" style="stop-color:#672783"/><stop offset=".647" style="stop-color:#652782"/><stop offset=".755" style="stop-color:#60277d"/><stop offset=".85" style="stop-color:#562674"/><stop offset=".937" style="stop-color:#4a2568"/><stop offset="1" style="stop-color:#3f245d"/></linearGradient><path d="M23.8,125c0,0,8.4-3.6,26.2-39.3c4-8,6.7-13.2,10.8-16.8c0,0,6.9-0.5,3.6,10.7c-3.3,11.2-4.5,29.8-4.5,29.8	s-9.6,20.2-11,21.7c-1.4,1.5-6.3,9-15.5,7.7S23.8,125,23.8,125z" class="st0"/><linearGradient id="SVGID_2_" x1="-52.291" x2="23.383" y1="-474.658" y2="-474.658" gradientTransform="matrix(0.3653 -0.9308 0.9308 0.3653 494.3181 263.6963)" gradientUnits="userSpaceOnUse"><stop offset="0" style="stop-color:#20254b"/><stop offset=".129" style="stop-color:#3c2758;stop-opacity:.8714"/><stop offset=".295" style="stop-color:#5a2867;stop-opacity:.7045"/><stop offset=".466" style="stop-color:#732673;stop-opacity:.5343"/><stop offset=".638" style="stop-color:#86237b;stop-opacity:.3619"/><stop offset=".814" style="stop-color:#922180;stop-opacity:.1857"/><stop offset="1" style="stop-color:#952081;stop-opacity:0"/></linearGradient><path d="M23.8,125c0,0,8.4-3.6,26.2-39.3c4-7.9,6.7-13.2,10.8-16.8c0,0,6.9-0.5,3.6,10.7c-3.3,11.2-4.5,29.8-4.5,29.8	s-9.6,20.2-11,21.7c-1.4,1.5-6.3,9-15.5,7.7S23.8,125,23.8,125z" class="st1"/><linearGradient id="SVGID_3_" x1="-52.291" x2="10.502" y1="-473.336" y2="-473.336" gradientTransform="matrix(0.3653 -0.9308 0.9308 0.3653 494.3181 263.6963)" gradientUnits="userSpaceOnUse"><stop offset="0" style="stop-color:#952081;stop-opacity:0"/><stop offset=".013" style="stop-color:#962081;stop-opacity:1.289326e-02"/><stop offset=".228" style="stop-color:#a02985;stop-opacity:.2279"/><stop offset=".498" style="stop-color:#a52e86;stop-opacity:.4982"/><stop offset="1" style="stop-color:#a72f87"/></linearGradient><path d="M48.7,114.1c-10.3,21.4-14,17.4-14,17.4s-4.9-0.6-9.9-1.6c1.1,3.6,3.5,8,8.8,8.8c9.2,1.3,14.1-6.2,15.5-7.7	c1.4-1.5,11-21.7,11-21.7s0.9-14.9,3.5-26C59.6,90.8,54.5,102,48.7,114.1z" class="st2"/><linearGradient id="SVGID_4_" x1="-58.722" x2="67.436" y1="-507.943" y2="-507.943" gradientTransform="matrix(0.3653 -0.9308 0.9308 0.3653 494.3181 263.6963)" gradientUnits="userSpaceOnUse"><stop offset="0" style="stop-color:#2271b8"/><stop offset=".5" style="stop-color:#3aabe2"/><stop offset="1" style="stop-color:#71c7d7"/></linearGradient><path d="M2.8,0c0,0,35.2-1,31.9,56.5c-3.5,61.7,4.7,85.4,17.5,69.4c0,0-12.9,26.5-36.8,12.3	C1.3,129.9,0.6,115.6,0.7,98.4C0.7,98.4,4.9,42.2,2.8,0z" class="st3"/><linearGradient id="SVGID_5_" x1="-22.171" x2="-22.171" y1="-396.168" y2="-436.435" gradientTransform="matrix(0.3653 -0.9308 0.9308 0.3653 494.3181 263.6963)" gradientUnits="userSpaceOnUse"><stop offset="0" style="stop-color:#d70953"/><stop offset=".5" style="stop-color:#a21a5c"/><stop offset="1" style="stop-color:#a21a5c"/></linearGradient><path d="M83.2,116.6c0,0,8.4,23.4,36.3,16.6c0.3-0.1,0.4,0.3,0.2,0.5c-3.3,2.1-9,4.9-14.1,6.9	C90.3,146.4,84.7,127.2,83.2,116.6z" class="st4"/><linearGradient id="SVGID_6_" x1="-21.967" x2="-21.967" y1="-396.168" y2="-436.435" gradientTransform="matrix(0.3653 -0.9308 0.9308 0.3653 494.3181 263.6963)" gradientUnits="userSpaceOnUse"><stop offset="0" style="stop-color:#d70953"/><stop offset=".995" style="stop-color:#3a1e3e"/></linearGradient><path d="M83.2,116.6c0,0,8.4,23.4,36.3,16.6c0.3-0.1,0.4,0.3,0.2,0.5c-3.3,2.1-11.3,6.6-16.3,7.2	C87.1,142.8,84.7,127.2,83.2,116.6z" class="st5"/><linearGradient id="SVGID_7_" x1="-38.382" x2="32.63" y1="-440.96" y2="-440.96" gradientTransform="matrix(0.3653 -0.9308 0.9308 0.3653 494.3181 263.6963)" gradientUnits="userSpaceOnUse"><stop offset="0" style="stop-color:#e72273"/><stop offset=".5" style="stop-color:#d70953"/><stop offset="1" style="stop-color:#a21a5c"/></linearGradient><path d="M78.2,65.6c-8.2-5.8-18,3.9-18,3.9c8.7-3.4-3.4,19.5,0.7,47.1c2.9,19.6,17.8,25.2,17.8,25.2l0,0	c13.2,5.7,26.9-1.3,26.9-1.3C65.9,136.9,93.3,76.5,78.2,65.6z" class="st6"/><linearGradient id="SVGID_8_" x1="-38.382" x2="32.729" y1="-440.96" y2="-440.96" gradientTransform="matrix(0.3653 -0.9308 0.9308 0.3653 494.3181 263.6963)" gradientUnits="userSpaceOnUse"><stop offset="0" style="stop-color:#e72273;stop-opacity:0"/><stop offset=".221" style="stop-color:#e72871;stop-opacity:.4418"/><stop offset=".5" style="stop-color:#e72a70"/><stop offset=".601" style="stop-color:#e42a6f;stop-opacity:.7974"/><stop offset=".707" style="stop-color:#db276c;stop-opacity:.5856"/><stop offset=".815" style="stop-color:#cb2367;stop-opacity:.3694"/><stop offset=".924" style="stop-color:#b51e61;stop-opacity:.1515"/><stop offset="1" style="stop-color:#a21a5c;stop-opacity:0"/></linearGradient><path d="M78.2,65.6c-8.1-6.2-18,3.9-18,3.9c8.7-3.4-3.4,19.5,0.7,47.1c2.9,19.6,17.8,25.2,17.8,25.2l0,0	c13.2,5.7,26.9-1.3,26.9-1.3C65.9,136.9,92.8,78.2,78.2,65.6z" class="st7"/><linearGradient id="SVGID_9_" x1="-58.722" x2="65.881" y1="-507.943" y2="-507.943" gradientTransform="matrix(0.3653 -0.9308 0.9308 0.3653 494.3181 263.6963)" gradientUnits="userSpaceOnUse"><stop offset="0" style="stop-color:#046ab3"/><stop offset=".451" style="stop-color:#198fcf"/><stop offset="1" style="stop-color:#009ac6"/></linearGradient><path d="M15.3,74.6C20.2,9.1,2.8,0,2.8,0c2.5,37.8-2.1,98.4-2.1,98.4c-0.1,17.9,0.6,31.5,14.6,39.9	c23.9,14.1,36.8-12.3,36.8-12.3C35.6,155.5,10.1,142.3,15.3,74.6z" class="st8"/><linearGradient id="SVGID_10_" x1="-38.382" x2="29.004" y1="-440.96" y2="-440.96" gradientTransform="matrix(0.3653 -0.9308 0.9308 0.3653 494.3181 263.6963)" gradientUnits="userSpaceOnUse"><stop offset="0" style="stop-color:#e72273;stop-opacity:0"/><stop offset=".258" style="stop-color:#cf1f6a;stop-opacity:.2583"/><stop offset=".566" style="stop-color:#b71c62;stop-opacity:.566"/><stop offset=".824" style="stop-color:#a81b5e;stop-opacity:.8243"/><stop offset="1" style="stop-color:#a21a5c"/></linearGradient><path d="M73.6,74.9c0.6-9.4-5.5-9.4-6.1-9.4c-4.5,1.4-7.3,4.1-7.3,4.1c8.7-3.4-3.4,19.5,0.7,47.1	c2.9,19.6,17.8,25.2,17.8,25.2l0,0c13.2,5.7,26.9-1.3,26.9-1.3C59.9,157,73,85.1,73.6,74.9z" class="st9"/><linearGradient id="SVGID_11_" x1="-35.675" x2="32.729" y1="-440.96" y2="-440.96" gradientTransform="matrix(0.3653 -0.9308 0.9308 0.3653 494.3181 263.6963)" gradientUnits="userSpaceOnUse"><stop offset="0" style="stop-color:#e72273;stop-opacity:0"/><stop offset=".018" style="stop-color:#e93e7d;stop-opacity:3.596431e-02"/><stop offset=".069" style="stop-color:#ee779c;stop-opacity:.1371"/><stop offset=".121" style="stop-color:#f3a1b8;stop-opacity:.2429"/><stop offset=".176" style="stop-color:#f7c1d0;stop-opacity:.3515"/><stop offset=".232" style="stop-color:#fad9e2;stop-opacity:.4634"/><stop offset=".29" style="stop-color:#fdeaf0;stop-opacity:.5798"/><stop offset=".351" style="stop-color:#fef6f9;stop-opacity:.7026"/><stop offset=".418" style="stop-color:#fffdfe;stop-opacity:.8361"/><stop offset=".5" style="stop-color:#fff"/><stop offset=".56" style="stop-color:#fdfcfc;stop-opacity:.8808"/><stop offset=".622" style="stop-color:#f8f1f4;stop-opacity:.7561"/><stop offset=".686" style="stop-color:#efdfe6;stop-opacity:.6287"/><stop offset=".75" style="stop-color:#e4c5d1;stop-opacity:.4995"/><stop offset=".816" style="stop-color:#d5a4b6;stop-opacity:.3689"/><stop offset=".881" style="stop-color:#c47b96;stop-opacity:.2371"/><stop offset=".947" style="stop-color:#b24a74;stop-opacity:.1069"/><stop offset="1" style="stop-color:#a21a5c;stop-opacity:0"/></linearGradient><path d="M60.2,69.5c0,0,2.8-2.7,7.3-4.1c0.6,0,6.7,0,6.1,9.4c-0.6,10.2-15.3,82.1,32.1,65.6	c-39.7-3.5-12.9-62.2-27.5-74.8C70.1,59.4,60.2,69.5,60.2,69.5z" class="st10"/><linearGradient id="SVGID_12_" x1="-25.224" x2="40.939" y1="-453.727" y2="-568.325" gradientTransform="matrix(0.3653 -0.9308 0.9308 0.3653 494.3181 263.6963)" gradientUnits="userSpaceOnUse"><stop offset="0" style="stop-color:#2271b8;stop-opacity:0"/><stop offset=".01" style="stop-color:#2d75ba;stop-opacity:1.914263e-02"/><stop offset=".111" style="stop-color:#799ace;stop-opacity:.2215"/><stop offset=".207" style="stop-color:#adbcdd;stop-opacity:.415"/><stop offset=".297" style="stop-color:#d1d8e9;stop-opacity:.5948"/><stop offset=".379" style="stop-color:#ebedf0;stop-opacity:.7577"/><stop offset=".449" style="stop-color:#fbfaf4;stop-opacity:.8981"/><stop offset=".5" style="stop-color:#fffef5"/><stop offset=".613" style="stop-color:#fefdf5;stop-opacity:.7737"/><stop offset=".696" style="stop-color:#f6faf3;stop-opacity:.6085"/><stop offset=".769" style="stop-color:#e9f4f0;stop-opacity:.4627"/><stop offset=".836" style="stop-color:#d6eceb;stop-opacity:.328"/><stop offset=".899" style="stop-color:#bbe1e5;stop-opacity:.2011"/><stop offset=".959" style="stop-color:#96d3de;stop-opacity:8.162302e-02"/><stop offset="1" style="stop-color:#71c7d7;stop-opacity:0"/></linearGradient><path d="M2.8,0L2.8,0c0,0,17.4,9.1,12.5,74.6c-3.9,51.8,10.1,71.7,24.3,64.9c4.3-2.5,7.6-6.1,9.7-9c1-1.4,2-3,2.9-4.6	c-12.8,15.9-21-7.7-17.5-69.4C38-1,2.8,0,2.8,0z" class="st11"/></svg>